<?xml version="1.0" standalone="no"?>
<!DOCTYPE svg PUBLIC "-//W3C//DTD SVG 20010904//EN"
 "http://www.w3.org/TR/2001/REC-SVG-20010904/DTD/svg10.dtd">
<svg version="1.0" xmlns="http://www.w3.org/2000/svg"
 width="700.000000pt" height="700.000000pt" viewBox="0 0 700.000000 700.000000"
 preserveAspectRatio="xMidYMid meet">
<metadata>
Created by potrace 1.14, written by Peter Selinger 2001-2017
</metadata>
<g transform="translate(0.000000,700.000000) scale(0.100000,-0.100000)"
fill="#000000" stroke="none">
<path d="M3329 6766 c-2 -2 -31 -7 -64 -11 -130 -13 -343 -76 -485 -143 -429
-203 -752 -565 -900 -1010 -40 -122 -64 -225 -75 -327 -4 -33 -10 -63 -13 -67
-4 -4 -33 -10 -66 -13 -220 -21 -504 -124 -716 -259 -125 -80 -300 -238 -404
-364 -50 -61 -140 -198 -182 -277 -80 -150 -159 -395 -181 -557 -16 -123 -7
-516 13 -549 2 -4 6 -24 10 -45 21 -131 109 -356 199 -509 266 -452 760 -778
1260 -830 33 -4 63 -10 67 -13 3 -4 9 -34 12 -66 17 -164 84 -382 167 -548 41
-82 130 -231 149 -248 3 -3 21 -25 40 -50 282 -366 729 -607 1200 -646 62 -5
269 -5 300 0 14 3 45 7 70 10 96 13 307 62 325 76 6 4 28 13 50 20 61 19 201
88 290 143 155 96 321 242 438 387 193 238 331 566 363 860 4 30 9 58 13 62 3
3 33 9 66 13 95 10 239 44 348 81 360 126 682 382 883 702 102 161 173 330
217 512 37 152 38 166 42 370 5 223 -7 308 -75 555 -14 54 -80 208 -117 275
-212 385 -541 669 -938 810 -87 30 -234 69 -285 75 -96 11 -136 18 -142 24 -3
3 -9 33 -12 65 -31 292 -171 620 -372 866 -235 290 -580 507 -929 585 -77 17
-114 25 -145 31 -41 7 -414 16 -421 10z m441 -316 c288 -58 523 -184 729 -389
210 -210 345 -471 396 -769 14 -85 22 -410 11 -467 -2 -11 -7 -52 -10 -90 -4
-39 -8 -82 -11 -95 -3 -13 -7 -42 -11 -65 -4 -33 -18 -100 -39 -195 -9 -43
-39 -153 -57 -210 -35 -112 -140 -370 -149 -365 -4 3 -39 47 -77 98 -126 167
-288 341 -453 488 -85 76 -222 183 -261 207 -15 9 -29 21 -32 28 -8 20 321
144 514 194 97 26 316 67 363 69 17 1 18 9 12 114 -9 140 -12 177 -16 182 -4
2 -85 -9 -214 -30 -238 -39 -604 -161 -849 -283 l-115 -58 -118 58 c-178 88
-440 187 -603 228 -252 64 -433 296 -434 555 0 108 6 147 38 224 55 135 177
263 368 384 102 65 309 154 398 171 14 2 45 9 70 14 25 6 72 14 105 17 33 4
61 8 63 10 13 12 293 -7 382 -25z m-1660 -1545 c181 -7 220 -12 395 -46 223
-44 379 -93 657 -207 21 -8 35 -19 32 -24 -3 -4 -51 -43 -107 -85 -56 -42
-107 -82 -113 -88 -6 -5 -44 -39 -85 -75 -158 -139 -348 -348 -462 -507 -29
-40 -54 -72 -57 -72 -9 -1 -98 219 -134 329 -33 104 -91 327 -99 385 -3 17
-11 65 -18 108 l-13 78 -111 -6 c-116 -7 -176 -13 -180 -17 -1 -2 4 -41 11
-88 7 -47 15 -98 18 -115 38 -249 158 -608 297 -884 l47 -94 -34 -61 c-80
-147 -185 -412 -239 -606 -43 -151 -86 -232 -169 -314 -117 -118 -241 -169
-411 -169 -213 -1 -362 85 -528 306 -68 90 -85 118 -140 232 -150 308 -183
639 -97 975 99 387 376 725 740 906 89 44 237 98 299 109 19 3 37 7 40 9 17
11 274 34 311 29 8 -1 76 -5 150 -8z m3726 -274 c179 -54 351 -228 490 -496
164 -319 195 -722 80 -1075 -94 -292 -294 -557 -551 -730 -166 -112 -367 -192
-564 -225 -87 -14 -143 -16 -325 -12 -122 4 -232 8 -246 11 -14 2 -45 7 -70
10 -235 31 -555 120 -758 212 -29 13 -56 24 -60 24 -5 0 -13 5 -19 11 -9 9 13
30 85 84 167 125 342 286 482 444 36 41 70 79 75 85 6 6 24 29 40 51 17 22 38
49 48 60 10 11 32 42 49 68 18 29 34 45 40 39 16 -16 87 -189 128 -313 62
-184 122 -448 129 -567 1 -10 23 -12 109 -6 139 9 176 12 183 13 9 2 -9 120
-41 281 -54 265 -152 552 -269 784 l-57 114 58 119 c75 155 192 451 204 519 9
55 60 191 89 239 136 227 415 333 671 256z m-2235 -226 c314 -214 614 -515
816 -823 l55 -82 -65 -98 c-124 -185 -340 -432 -502 -573 -77 -68 -231 -185
-317 -243 l-87 -59 -83 55 c-309 204 -615 509 -824 820 l-66 97 47 73 c169
260 412 522 673 723 7 6 18 15 25 21 40 35 223 154 232 150 6 -2 49 -30 96
-61z m-1186 -1263 c69 -99 236 -292 355 -410 107 -105 306 -274 393 -332 20
-14 37 -27 37 -30 0 -7 -159 -74 -273 -115 -88 -31 -281 -86 -347 -99 -14 -3
-50 -10 -80 -16 -30 -6 -72 -13 -93 -16 -21 -3 -46 -7 -55 -9 -9 -2 -25 -4
-35 -4 -17 -1 -17 -10 -12 -108 10 -167 11 -183 16 -187 2 -3 67 6 144 19 309
51 569 131 847 259 32 15 59 25 60 24 2 -2 17 6 33 18 79 55 85 56 172 11 171
-88 437 -191 613 -238 286 -77 463 -292 464 -563 0 -181 -50 -302 -175 -427
-245 -244 -602 -391 -954 -393 -138 0 -227 8 -328 30 -592 130 -1041 633
-1104 1239 -12 112 -6 347 12 483 2 18 9 69 15 115 22 159 117 513 174 642 7
17 26 60 42 98 16 37 31 67 34 67 3 -1 23 -26 45 -58z"/>
</g>
</svg>
