<?xml version="1.0" encoding="UTF-8" standalone="no"?>
<!DOCTYPE svg PUBLIC "-//W3C//DTD SVG 1.1//EN" "http://www.w3.org/Graphics/SVG/1.1/DTD/svg11.dtd">
<svg width="100%" height="100%" viewBox="0 0 1024 1024" version="1.1" xmlns="http://www.w3.org/2000/svg"
     xml:space="preserve" style="fill-rule:evenodd;clip-rule:evenodd;stroke-linejoin:round;stroke-miterlimit:2;">
    <g transform="matrix(1,0,0,1,-2464,0)">
        <g id="icon-solid" transform="matrix(1,0,0,1,-0.333333,0)">
            <rect x="2464.33" y="0" width="1024" height="1024" style="fill:none;"/>
            <g transform="matrix(7.75888,0,0,7.75882,3226.24,306.108)">
                <path d="M0,53.073L0,53.075C-0.007,53.076 -0.013,53.076 -0.02,53.076C-0.027,53.077 -0.034,53.078 -0.042,53.079L-0.042,53.077C-1.785,53.176 -3.321,53.157 -5.601,53.144C-13.103,52.767 -20.221,50.908 -26.669,47.858C-20.504,43.595 -15.15,38.241 -10.888,32.076C-8.375,37.39 -6.686,43.163 -5.953,49.226L-5.94,49.188L-0.404,48.825C-1.333,40.836 -3.778,33.302 -7.47,26.537C-5.136,22.26 -3.294,17.678 -2.02,12.867C0.171,4.59 10.581,1.908 16.505,8.089C21.101,12.884 23.929,19.386 23.929,26.537C23.929,40.319 13.423,51.692 0,53.073M-13.761,75.25C-18.556,79.847 -25.058,82.674 -32.209,82.674C-45.991,82.674 -57.366,72.169 -58.747,58.745C-59.001,56.566 -58.816,53.144 -58.816,53.144C-58.439,45.642 -56.579,38.525 -53.53,32.076C-49.267,38.241 -43.913,43.595 -37.748,47.858C-43.051,50.366 -48.811,52.053 -54.861,52.788L-54.497,58.342C-46.507,57.413 -38.974,54.967 -32.209,51.275C-27.932,53.609 -23.349,55.451 -18.539,56.725C-10.262,58.917 -7.58,69.326 -13.761,75.25M-80.922,44.985C-85.518,40.19 -88.346,33.688 -88.346,26.537C-88.346,12.793 -77.898,1.448 -64.528,0.015L-64.528,0.01C-64.498,0.006 -64.455,0.004 -64.423,-0.001L-64.417,-0.001C-63.068,-0.172 -60.008,-0.093 -58.816,-0.071C-51.314,0.307 -44.197,2.166 -37.748,5.216C-43.913,9.478 -49.267,14.832 -53.53,20.997C-56.047,15.674 -57.738,9.89 -58.469,3.815L-58.477,3.885L-64.014,4.249C-63.085,12.238 -60.639,19.771 -56.947,26.537C-59.281,30.814 -61.123,35.396 -62.397,40.207C-64.589,48.483 -74.998,51.166 -80.922,44.985M-13.9,26.537C-18.498,33.966 -24.779,40.247 -32.209,44.846C-39.638,40.247 -45.919,33.966 -50.517,26.537C-45.919,19.108 -39.638,12.826 -32.209,8.228C-24.779,12.826 -18.498,19.108 -13.9,26.537M-50.657,-22.177C-45.862,-26.773 -39.36,-29.601 -32.209,-29.601C-18.426,-29.601 -7.051,-19.095 -5.67,-5.672C-5.67,-5.672 -5.671,-5.672 -5.671,-5.671L-5.67,-5.671C-5.51,-3.906 -5.601,-0.071 -5.601,-0.071C-5.978,7.432 -7.838,14.549 -10.888,20.997C-15.15,14.832 -20.504,9.478 -26.669,5.216C-21.361,2.705 -15.595,1.018 -9.538,0.283L-9.557,0.269L-9.921,-5.268C-17.91,-4.339 -25.443,-1.894 -32.209,1.798C-36.486,-0.536 -41.068,-2.378 -45.879,-3.652C-54.155,-5.843 -56.838,-16.253 -50.657,-22.177M-0.09,-5.582C-1.448,-22.116 -15.33,-35.159 -32.209,-35.159C-49.088,-35.159 -62.969,-22.116 -64.328,-5.582C-80.862,-4.224 -93.904,9.658 -93.904,26.537C-93.904,43.416 -80.862,57.297 -64.328,58.656C-62.969,75.19 -49.088,88.232 -32.209,88.232C-15.33,88.232 -1.448,75.19 -0.09,58.656C16.445,57.297 29.487,43.416 29.487,26.537C29.487,9.658 16.445,-4.224 -0.09,-5.582"
                      style="fill:rgb(252,93,68);fill-rule:nonzero;"/>
            </g>
        </g>
    </g>
</svg>
