<?xml version="1.0" encoding="UTF-8" standalone="no"?>
<!DOCTYPE svg PUBLIC "-//W3C//DTD SVG 1.1//EN" "http://www.w3.org/Graphics/SVG/1.1/DTD/svg11.dtd">
<svg width="100%" height="100%" viewBox="0 0 1024 1024" version="1.1" xmlns="http://www.w3.org/2000/svg" xml:space="preserve" style="fill-rule:evenodd;clip-rule:evenodd;stroke-linejoin:round;stroke-miterlimit:2;">
    <g transform="matrix(1,0,0,1,-7392,0)">
        <g id="x3-padding-white-color-bg" transform="matrix(1,0,0,1,-0.333333,0)">
            <rect x="7392.33" y="0" width="1024" height="1024" style="fill:rgb(252,86,68);"/>
            <g transform="matrix(0.834269,0,0,0.834269,7478.06,85.7306)">
                <g transform="matrix(517.837,-298.974,-298.974,-517.837,237.876,614.195)">
                    <path d="M1,0.115C1,0.115 1,0.115 1,0.115L1,0.115ZM0.999,0.115C0.887,0.173 0.766,0.202 0.646,0.205C0.646,0.205 0.598,0.207 0.56,0.203C0.461,0.195 0.364,0.169 0.274,0.126C0.274,0.126 0.23,0.106 0.198,0.085C0.143,0.052 0.092,0.012 0.046,-0.034L-0,-0.208C0.054,-0.124 0.123,-0.055 0.2,-0.001C0.2,-0.001 0.225,0.02 0.272,0.043C0.374,0.097 0.487,0.128 0.603,0.131C0.603,0.131 0.647,0.134 0.687,0.129C0.781,0.122 0.875,0.096 0.964,0.05L1,0.115C1,0.115 1,0.115 0.999,0.115Z" style="fill:white;fill-rule:nonzero;"/>
                </g>
                <g transform="matrix(-298.973,-517.837,-517.837,298.973,614.191,784.013)">
                    <path d="M1,0.115C1,0.115 1,0.115 0.999,0.115C0.887,0.173 0.766,0.202 0.646,0.205C0.646,0.205 0.598,0.207 0.56,0.203C0.461,0.195 0.364,0.169 0.274,0.126C0.274,0.126 0.23,0.106 0.198,0.085C0.143,0.052 0.092,0.012 0.046,-0.034L0,-0.208C0.054,-0.124 0.123,-0.055 0.2,-0.001C0.2,-0.001 0.225,0.02 0.272,0.043C0.374,0.097 0.487,0.128 0.603,0.131C0.603,0.131 0.647,0.134 0.687,0.129C0.781,0.122 0.875,0.096 0.964,0.05L1,0.115ZM1,0.115L1,0.115C1,0.115 1,0.115 1,0.115C1,0.115 1,0.115 1,0.115Z" style="fill:white;fill-rule:nonzero;"/>
                </g>
                <g transform="matrix(-517.838,298.974,298.974,517.838,784.207,407.264)">
                    <path d="M0.2,-0.001C0.2,-0.001 0.225,0.02 0.272,0.043C0.374,0.097 0.487,0.128 0.603,0.131C0.603,0.131 0.647,0.134 0.687,0.129C0.781,0.122 0.875,0.096 0.964,0.05L1,0.115C1,0.115 1,0.115 0.999,0.115C0.887,0.173 0.766,0.202 0.646,0.205C0.646,0.205 0.598,0.207 0.56,0.203C0.461,0.195 0.364,0.169 0.274,0.126C0.274,0.126 0.23,0.106 0.198,0.085C0.143,0.052 0.092,0.012 0.046,-0.034L0,-0.208C0.054,-0.124 0.123,-0.055 0.2,-0.001ZM1,0.115L1,0.115C1,0.115 1,0.115 1,0.115Z" style="fill:white;fill-rule:nonzero;"/>
                </g>
                <g transform="matrix(298.974,517.837,517.837,-298.974,407.889,237.872)">
                    <path d="M0,-0.208C0.054,-0.124 0.123,-0.055 0.2,-0.001C0.2,-0.001 0.225,0.02 0.272,0.043C0.374,0.097 0.487,0.128 0.603,0.131C0.603,0.131 0.647,0.134 0.687,0.129C0.781,0.122 0.875,0.096 0.964,0.05L1,0.115C1,0.115 1,0.115 0.999,0.115C0.887,0.173 0.766,0.202 0.646,0.205C0.646,0.205 0.598,0.207 0.56,0.203C0.461,0.195 0.364,0.169 0.274,0.126C0.274,0.126 0.23,0.106 0.198,0.085C0.143,0.052 0.092,0.012 0.046,-0.034L0,-0.208ZM1,0.115C1,0.115 1,0.115 1,0.115L1,0.115Z" style="fill:white;fill-rule:nonzero;"/>
                </g>
                <g transform="matrix(4.68942,0,0,4.68942,766.26,300.586)">
                    <path d="M0,89.718C-3.765,90.083 -9.468,89.835 -9.468,89.835L-31.635,95.809C-17.525,99.59 -12.87,117.379 -23.484,127.415C-31.567,135.058 -42.468,139.751 -54.444,139.751C-77.766,139.751 -97.009,121.957 -99.311,99.232C-99.779,94.214 -99.42,89.835 -99.42,89.835L-105.394,67.668C-109.175,81.778 -126.964,86.433 -137.001,75.819C-144.644,67.736 -149.337,56.836 -149.337,44.859C-149.337,21.623 -131.671,2.443 -109.065,0.026L-109.076,0.02C-109.028,0.014 -108.967,0.009 -108.916,0.004C-108.906,0.003 -108.897,0.001 -108.888,-0C-108.887,-0 -108.887,0.001 -108.886,0.001C-106.23,-0.27 -99.42,-0.117 -99.42,-0.117L-77.254,-6.091C-91.364,-9.873 -96.019,-27.662 -85.405,-37.698C-77.322,-45.341 -66.421,-50.034 -54.444,-50.034C-31.147,-50.034 -11.919,-32.276 -9.585,-9.586C-9.319,-6.121 -9.468,-0.117 -9.468,-0.117L-3.494,22.049C0.287,7.94 18.076,3.284 28.113,13.898C35.756,21.981 40.448,32.882 40.448,44.859C40.448,68.157 22.691,87.384 0,89.718M-0.152,-9.433C-2.448,-37.383 -25.913,-59.429 -54.444,-59.429C-82.976,-59.429 -106.44,-37.383 -108.737,-9.433C-136.686,-7.138 -158.732,16.327 -158.732,44.859C-158.732,73.391 -136.686,96.855 -108.737,99.151C-106.44,127.1 -82.976,149.147 -54.444,149.147C-25.913,149.147 -2.448,127.1 -0.152,99.151C27.798,96.855 49.844,73.391 49.844,44.859C49.844,16.327 27.797,-7.138 -0.152,-9.433" style="fill:white;fill-rule:nonzero;"/>
                </g>
                <g transform="matrix(1.93115,-4.27333,-4.27333,-1.93115,343.372,339.16)">
                    <path d="M3.797,11.857L7.996,11.857L18.37,-5.883L15.444,-6.001L3.797,11.857Z" style="fill:white;fill-rule:nonzero;"/>
                </g>
                <g transform="matrix(0.542143,4.65798,4.65798,-0.542143,787.436,330.335)">
                    <path d="M-8.035,-13.143L13.685,-13.143L14.674,-9.772L-1.533,-7.127L-8.035,-13.143Z" style="fill:white;fill-rule:nonzero;"/>
                </g>
                <g transform="matrix(4.68628,-0.171584,-0.171584,-4.68628,618.458,751.766)">
                    <path d="M-0.102,0.408L13.044,0.408L22.269,5.566L6.055,4.338L-0.102,0.408Z" style="fill:white;fill-rule:nonzero;"/>
                </g>
                <g transform="matrix(0,4.68942,4.68942,0,338.003,655.878)">
                    <path d="M-8.097,-14.071L6.755,-14.071L14.071,-8.097L-0.155,-8.9L-8.097,-14.071Z" style="fill:white;fill-rule:nonzero;"/>
                </g>
            </g>
        </g>
    </g>
</svg>
