<?xml version="1.0" encoding="UTF-8" standalone="no"?>
<!DOCTYPE svg PUBLIC "-//W3C//DTD SVG 1.1//EN" "http://www.w3.org/Graphics/SVG/1.1/DTD/svg11.dtd">
<svg width="100%" height="100%" viewBox="0 0 1024 1024" version="1.1" xmlns="http://www.w3.org/2000/svg"
     xml:space="preserve" style="fill-rule:evenodd;clip-rule:evenodd;stroke-linejoin:round;stroke-miterlimit:2;">
    <g transform="matrix(1,0,0,1,-7792,0)">
        <g id="vertical-dark" transform="matrix(1,0,0,1,-0.333333,0)">
            <rect x="7792.33" y="0" width="1024" height="1024" style="fill:none;"/>
            <g transform="matrix(0.384418,0,0,0.384418,8107.92,315.582)">
                <g transform="matrix(517.837,-298.974,-298.974,-517.837,237.876,614.195)">
                    <path d="M1,0.115C1,0.115 1,0.115 1,0.115L1,0.115ZM0.999,0.115C0.887,0.173 0.766,0.202 0.646,0.205C0.646,0.205 0.598,0.207 0.56,0.203C0.461,0.195 0.364,0.169 0.274,0.126C0.274,0.126 0.23,0.106 0.198,0.085C0.143,0.052 0.092,0.012 0.046,-0.034L-0,-0.208C0.054,-0.124 0.123,-0.055 0.2,-0.001C0.2,-0.001 0.225,0.02 0.272,0.043C0.374,0.097 0.487,0.128 0.603,0.131C0.603,0.131 0.647,0.134 0.687,0.129C0.781,0.122 0.875,0.096 0.964,0.05L1,0.115C1,0.115 1,0.115 0.999,0.115Z"
                          style="fill:url(#_Linear1);fill-rule:nonzero;"/>
                </g>
                <g transform="matrix(-298.973,-517.837,-517.837,298.973,614.191,784.013)">
                    <path d="M1,0.115C1,0.115 1,0.115 0.999,0.115C0.887,0.173 0.766,0.202 0.646,0.205C0.646,0.205 0.598,0.207 0.56,0.203C0.461,0.195 0.364,0.169 0.274,0.126C0.274,0.126 0.23,0.106 0.198,0.085C0.143,0.052 0.092,0.012 0.046,-0.034L0,-0.208C0.054,-0.124 0.123,-0.055 0.2,-0.001C0.2,-0.001 0.225,0.02 0.272,0.043C0.374,0.097 0.487,0.128 0.603,0.131C0.603,0.131 0.647,0.134 0.687,0.129C0.781,0.122 0.875,0.096 0.964,0.05L1,0.115ZM1,0.115L1,0.115C1,0.115 1,0.115 1,0.115C1,0.115 1,0.115 1,0.115Z"
                          style="fill:url(#_Linear2);fill-rule:nonzero;"/>
                </g>
                <g transform="matrix(-517.838,298.974,298.974,517.838,784.207,407.264)">
                    <path d="M0.2,-0.001C0.2,-0.001 0.225,0.02 0.272,0.043C0.374,0.097 0.487,0.128 0.603,0.131C0.603,0.131 0.647,0.134 0.687,0.129C0.781,0.122 0.875,0.096 0.964,0.05L1,0.115C1,0.115 1,0.115 0.999,0.115C0.887,0.173 0.766,0.202 0.646,0.205C0.646,0.205 0.598,0.207 0.56,0.203C0.461,0.195 0.364,0.169 0.274,0.126C0.274,0.126 0.23,0.106 0.198,0.085C0.143,0.052 0.092,0.012 0.046,-0.034L0,-0.208C0.054,-0.124 0.123,-0.055 0.2,-0.001ZM1,0.115L1,0.115C1,0.115 1,0.115 1,0.115Z"
                          style="fill:url(#_Linear3);fill-rule:nonzero;"/>
                </g>
                <g transform="matrix(298.974,517.837,517.837,-298.974,407.889,237.872)">
                    <path d="M0,-0.208C0.054,-0.124 0.123,-0.055 0.2,-0.001C0.2,-0.001 0.225,0.02 0.272,0.043C0.374,0.097 0.487,0.128 0.603,0.131C0.603,0.131 0.647,0.134 0.687,0.129C0.781,0.122 0.875,0.096 0.964,0.05L1,0.115C1,0.115 1,0.115 0.999,0.115C0.887,0.173 0.766,0.202 0.646,0.205C0.646,0.205 0.598,0.207 0.56,0.203C0.461,0.195 0.364,0.169 0.274,0.126C0.274,0.126 0.23,0.106 0.198,0.085C0.143,0.052 0.092,0.012 0.046,-0.034L0,-0.208ZM1,0.115C1,0.115 1,0.115 1,0.115L1,0.115Z"
                          style="fill:url(#_Linear4);fill-rule:nonzero;"/>
                </g>
                <g transform="matrix(4.68942,0,0,4.68942,766.26,300.586)">
                    <path d="M0,89.718C-3.765,90.083 -9.468,89.835 -9.468,89.835L-31.635,95.809C-17.525,99.59 -12.87,117.379 -23.484,127.415C-31.567,135.058 -42.468,139.751 -54.444,139.751C-77.766,139.751 -97.009,121.957 -99.311,99.232C-99.779,94.214 -99.42,89.835 -99.42,89.835L-105.394,67.668C-109.175,81.778 -126.964,86.433 -137.001,75.819C-144.644,67.736 -149.337,56.836 -149.337,44.859C-149.337,21.623 -131.671,2.443 -109.065,0.026L-109.076,0.02C-109.028,0.014 -108.967,0.009 -108.916,0.004C-108.906,0.003 -108.897,0.001 -108.888,-0C-108.887,-0 -108.887,0.001 -108.886,0.001C-106.23,-0.27 -99.42,-0.117 -99.42,-0.117L-77.254,-6.091C-91.364,-9.873 -96.019,-27.662 -85.405,-37.698C-77.322,-45.341 -66.421,-50.034 -54.444,-50.034C-31.147,-50.034 -11.919,-32.276 -9.585,-9.586C-9.319,-6.121 -9.468,-0.117 -9.468,-0.117L-3.494,22.049C0.287,7.94 18.076,3.284 28.113,13.898C35.756,21.981 40.448,32.882 40.448,44.859C40.448,68.157 22.691,87.384 0,89.718M-0.152,-9.433C-2.448,-37.383 -25.913,-59.429 -54.444,-59.429C-82.976,-59.429 -106.44,-37.383 -108.737,-9.433C-136.686,-7.138 -158.732,16.327 -158.732,44.859C-158.732,73.391 -136.686,96.855 -108.737,99.151C-106.44,127.1 -82.976,149.147 -54.444,149.147C-25.913,149.147 -2.448,127.1 -0.152,99.151C27.798,96.855 49.844,73.391 49.844,44.859C49.844,16.327 27.797,-7.138 -0.152,-9.433"
                          style="fill:rgb(252,93,68);fill-rule:nonzero;"/>
                </g>
                <g transform="matrix(1.93115,-4.27333,-4.27333,-1.93115,343.372,339.16)">
                    <path d="M3.797,11.857L7.996,11.857L18.37,-5.883L15.444,-6.001L3.797,11.857Z"
                          style="fill:rgb(252,93,68);fill-rule:nonzero;"/>
                </g>
                <g transform="matrix(0.542143,4.65798,4.65798,-0.542143,787.436,330.335)">
                    <path d="M-8.035,-13.143L13.685,-13.143L14.674,-9.772L-1.533,-7.127L-8.035,-13.143Z"
                          style="fill:rgb(252,93,68);fill-rule:nonzero;"/>
                </g>
                <g transform="matrix(4.68628,-0.171584,-0.171584,-4.68628,618.458,751.766)">
                    <path d="M-0.102,0.408L13.044,0.408L22.269,5.566L6.055,4.338L-0.102,0.408Z"
                          style="fill:rgb(252,93,68);fill-rule:nonzero;"/>
                </g>
                <g transform="matrix(0,4.68942,4.68942,0,338.003,655.878)">
                    <path d="M-8.097,-14.071L6.755,-14.071L14.071,-8.097L-0.155,-8.9L-8.097,-14.071Z"
                          style="fill:rgb(252,93,68);fill-rule:nonzero;"/>
                </g>
            </g>
            <g transform="matrix(0.333333,0,0,1,5605.56,0)">
                <g transform="matrix(7.59384,0,0,2.53128,1357.64,-355.023)">
                    <path d="M714.495,449.301L714.495,469.281L740.018,469.281L740.018,449.301L745.625,449.301L745.625,494.418L740.018,494.418L740.018,474.373L714.495,474.373L714.495,494.418L708.823,494.418L708.823,449.301L714.495,449.301Z"
                          style="fill:white;fill-rule:nonzero;"/>
                </g>
                <g transform="matrix(7.59384,0,0,2.53128,1357.64,-355.023)">
                    <path d="M757.098,464.834C760.492,461.397 764.617,459.678 769.473,459.678C774.328,459.678 778.464,461.408 781.88,464.866C785.296,468.325 787.004,472.461 787.004,477.274C787.004,482.129 785.307,486.275 781.912,489.713C778.475,493.193 774.328,494.934 769.473,494.934C764.617,494.934 760.492,493.204 757.098,489.745C753.703,486.286 752.006,482.129 752.006,477.274C752.006,472.418 753.703,468.272 757.098,464.834ZM757.162,477.274C757.162,480.797 758.355,483.773 760.739,486.2C763.124,488.628 766.035,489.842 769.473,489.842C772.953,489.842 775.886,488.617 778.27,486.168C780.655,483.719 781.848,480.754 781.848,477.274C781.848,473.793 780.644,470.828 778.238,468.379C775.832,465.93 772.91,464.705 769.473,464.705C766.035,464.705 763.124,465.93 760.739,468.379C758.355,470.828 757.162,473.793 757.162,477.274Z"
                          style="fill:white;fill-rule:nonzero;"/>
                </g>
                <g transform="matrix(7.59384,0,0,2.53128,1357.64,-355.023)">
                    <path d="M792.418,460.258L797.896,460.258L797.896,479.272C797.896,482.537 798.863,485.115 800.797,487.006C802.73,488.897 805.072,489.842 807.822,489.842C810.959,489.842 813.547,488.703 815.588,486.426C817.629,484.149 818.65,481.248 818.65,477.725L818.65,460.258L824.128,460.258L824.128,494.418L818.65,494.418L818.65,488.488C817.49,490.379 815.9,491.937 813.88,493.161C811.861,494.386 809.519,494.998 806.855,494.998C802.902,494.998 799.508,493.72 796.672,491.163C793.836,488.607 792.418,485.18 792.418,480.883L792.418,460.258Z"
                          style="fill:white;fill-rule:nonzero;"/>
                </g>
                <g transform="matrix(7.59384,0,0,2.53128,1357.64,-355.023)">
                    <path d="M830.509,469.604C830.509,466.51 831.82,464.082 834.441,462.321C837.062,460.559 840.328,459.678 844.238,459.678C849.222,459.678 853.648,461.01 857.515,463.674L857.515,469.088C852.831,465.994 848.406,464.448 844.238,464.448C841.96,464.448 840.048,464.909 838.501,465.833C836.955,466.757 836.181,468.014 836.181,469.604C836.181,470.377 836.385,471.032 836.793,471.57C837.202,472.107 837.9,472.579 838.888,472.988C839.876,473.396 840.822,473.707 841.724,473.922C842.626,474.137 843.937,474.438 845.656,474.824C845.827,474.867 845.967,474.9 846.075,474.921C846.182,474.943 846.311,474.964 846.461,474.986C846.612,475.007 846.751,475.039 846.88,475.082C851.048,475.985 854.067,477.263 855.936,478.917C857.805,480.571 858.74,482.645 858.74,485.137L858.74,485.266C858.74,488.402 857.45,490.798 854.872,492.452C852.294,494.106 849.136,494.934 845.398,494.934C840.156,494.934 835.322,493.258 830.896,489.906L830.896,484.041C832.443,485.631 834.591,487.038 837.341,488.263C840.091,489.487 842.777,490.1 845.398,490.1C847.589,490.1 849.426,489.638 850.909,488.714C852.391,487.79 853.132,486.576 853.132,485.072C853.132,482.365 849.909,480.389 843.464,479.143C839.038,478.283 835.773,477.134 833.667,475.695C831.562,474.255 830.509,472.225 830.509,469.604Z"
                          style="fill:white;fill-rule:nonzero;"/>
                </g>
                <g transform="matrix(7.59384,0,0,2.53128,1357.64,-355.023)">
                    <path d="M868.15,464.77C871.544,461.375 875.669,459.678 880.524,459.678C884.864,459.678 888.656,461.128 891.9,464.029C895.144,466.929 897.067,470.528 897.669,474.824C897.841,475.727 897.927,476.565 897.927,477.338C897.927,478.026 897.862,478.67 897.733,479.272L868.472,479.272C868.773,482.451 870.062,485.029 872.339,487.006C874.616,488.982 877.345,489.971 880.524,489.971C882.716,489.971 884.778,489.477 886.712,488.488C888.646,487.5 890.214,486.168 891.417,484.492L896.38,485.652C895.005,488.445 892.846,490.69 889.902,492.388C886.959,494.085 883.833,494.934 880.524,494.934C875.626,494.934 871.48,493.204 868.085,489.745C864.691,486.286 862.993,482.129 862.993,477.274C862.993,472.375 864.712,468.207 868.15,464.77ZM868.472,474.953L892.319,474.953C891.933,472.031 890.633,469.572 888.42,467.573C886.207,465.575 883.554,464.576 880.46,464.576C877.323,464.576 874.627,465.575 872.371,467.573C870.115,469.572 868.816,472.031 868.472,474.953Z"
                          style="fill:white;fill-rule:nonzero;"/>
                </g>
                <g transform="matrix(7.59384,0,0,2.53128,1357.64,-355.023)">
                    <path d="M925.512,464.834C928.907,461.397 933.032,459.678 937.887,459.678C942.743,459.678 946.878,461.408 950.294,464.866C953.71,468.325 955.418,472.461 955.418,477.274C955.418,482.129 953.721,486.275 950.327,489.713C946.889,493.193 942.743,494.934 937.887,494.934C933.032,494.934 928.907,493.204 925.512,489.745C922.118,486.286 920.421,482.129 920.421,477.274C920.421,472.418 922.118,468.272 925.512,464.834ZM925.577,477.274C925.577,480.797 926.769,483.773 929.154,486.2C931.539,488.628 934.45,489.842 937.887,489.842C941.368,489.842 944.3,488.617 946.685,486.168C949.07,483.719 950.262,480.754 950.262,477.274C950.262,473.793 949.059,470.828 946.653,468.379C944.247,465.93 941.325,464.705 937.887,464.705C934.45,464.705 931.539,465.93 929.154,468.379C926.769,470.828 925.577,473.793 925.577,477.274Z"
                          style="fill:white;fill-rule:nonzero;"/>
                </g>
                <g transform="matrix(7.59384,0,0,2.53128,1357.64,-355.023)">
                    <path d="M958.254,465.028L958.254,460.258L965.537,460.258L965.537,459.034C965.537,454.436 966.805,451.514 969.34,450.268C971.875,449.022 974.303,448.399 976.623,448.399C978.428,448.399 980.405,448.678 982.553,449.237L982.553,453.491C980.49,452.975 978.621,452.717 976.946,452.717C976.86,452.717 976.365,452.728 975.463,452.749C974.561,452.771 973.562,453.308 972.466,454.361C971.37,455.413 970.823,456.971 970.823,459.034L970.823,460.258L982.037,460.258L982.037,465.028L971.016,465.028L971.016,494.418L965.602,494.418L965.537,465.028L958.254,465.028Z"
                          style="fill:white;fill-rule:nonzero;"/>
                </g>
                <g transform="matrix(7.59384,0,0,2.53128,1357.64,-355.023)">
                    <path d="M1003.76,494.418L1020.58,449.301L1030.25,449.301L1046.75,494.418L1040.82,494.418L1036.82,483.654L1013.81,483.654L1009.69,494.418L1003.76,494.418ZM1035.08,478.498L1025.41,451.428L1015.55,478.498L1035.08,478.498Z"
                          style="fill:white;fill-rule:nonzero;"/>
                </g>
                <g transform="matrix(7.59384,0,0,2.53128,1357.64,-355.023)">
                    <rect x="1052.68" y="449.301" width="5.672" height="45.117" style="fill:white;fill-rule:nonzero;"/>
                </g>
            </g>
        </g>
    </g>
    <defs>
        <linearGradient id="_Linear1" x1="0" y1="0" x2="1" y2="0" gradientUnits="userSpaceOnUse"
                        gradientTransform="matrix(1,-5.55112e-17,-5.55112e-17,-1,0,-0.0012152)"><stop offset="0" style="stop-color:rgb(252,93,68);stop-opacity:1"/>
            <stop offset="0" style="stop-color:rgb(252,93,68);stop-opacity:1"/>
            <stop offset="1" style="stop-color:rgb(160,43,40);stop-opacity:1"/></linearGradient>
        <linearGradient id="_Linear2" x1="0" y1="0" x2="1" y2="0" gradientUnits="userSpaceOnUse"
                        gradientTransform="matrix(1,0,0,-1,0,-0.00122251)"><stop offset="0" style="stop-color:rgb(252,93,68);stop-opacity:1"/>
            <stop offset="0" style="stop-color:rgb(252,93,68);stop-opacity:1"/>
            <stop offset="1" style="stop-color:rgb(160,43,40);stop-opacity:1"/></linearGradient>
        <linearGradient id="_Linear3" x1="0" y1="0" x2="1" y2="0" gradientUnits="userSpaceOnUse"
                        gradientTransform="matrix(1,0,0,-1,0,-0.0012218)"><stop offset="0" style="stop-color:rgb(252,93,68);stop-opacity:1"/>
            <stop offset="0" style="stop-color:rgb(252,93,68);stop-opacity:1"/>
            <stop offset="1" style="stop-color:rgb(160,43,40);stop-opacity:1"/></linearGradient>
        <linearGradient id="_Linear4" x1="0" y1="0" x2="1" y2="0" gradientUnits="userSpaceOnUse"
                        gradientTransform="matrix(1,-5.55112e-17,-5.55112e-17,-1,0,-0.00122465)"><stop offset="0" style="stop-color:rgb(252,93,68);stop-opacity:1"/>
            <stop offset="0" style="stop-color:rgb(252,93,68);stop-opacity:1"/>
            <stop offset="1" style="stop-color:rgb(160,43,40);stop-opacity:1"/></linearGradient>
    </defs>
</svg>
